<?xml version="1.0" encoding="UTF-8" standalone="no"?>
<!-- Created with Inkscape (http://www.inkscape.org/) -->

<svg
   width="20cm"
   height="20cm"
   viewBox="0 0 200 200"
   version="1.1"
   id="svg1"
   xml:space="preserve"
   xmlns:inkscape="http://www.inkscape.org/namespaces/inkscape"
   xmlns:sodipodi="http://sodipodi.sourceforge.net/DTD/sodipodi-0.dtd"
   xmlns="http://www.w3.org/2000/svg"
   xmlns:svg="http://www.w3.org/2000/svg"><sodipodi:namedview
     id="namedview1"
     pagecolor="#ffffff"
     bordercolor="#000000"
     borderopacity="0.25"
     inkscape:showpageshadow="2"
     inkscape:pageopacity="0.0"
     inkscape:pagecheckerboard="0"
     inkscape:deskcolor="#d1d1d1"
     inkscape:document-units="cm"
     showguides="true" /><defs
     id="defs1" /><g
     inkscape:label="Layer 1"
     inkscape:groupmode="layer"
     id="layer1"><path
       id="path18"
       style="fill:#5ba3d9;fill-opacity:1;stroke-width:0.261073"
       d="M 115,5 C 98.2821,5.139997 81.896878,9.689471 67.499995,18.188715 58.570099,23.387295 50.547927,30.008101 43.749998,37.789901 28.587109,54.981841 20.151733,77.077236 20,100 c 0.151733,22.92278 8.587109,45.01815 23.749998,62.2101 V 100 C 43.885137,79.891646 52.511365,60.776215 67.499995,47.370804 80.491983,35.513566 97.41111,28.88098 115,28.749998 c 8.09205,0.0082 16.12368,1.395048 23.75,4.1007 9.62291,3.413837 18.39975,8.856107 25.73579,15.958028 L 181.05698,31.783427 C 169.24293,20.354833 154.66556,12.187051 138.75,8.078594 130.99493,6.054656 123.01479,5.02023 115,5 Z m 51.19618,144.4804 c -7.65815,7.93415 -17.05346,13.98252 -27.44618,17.6689 -7.62634,2.70567 -15.65794,4.0924 -23.75,4.1007 V 195 c 8.01481,-0.0203 15.99492,-1.05464 23.75,-3.07859 16.92085,-4.36862 32.30891,-13.32005 44.47098,-25.86933 z" /><path
       d="M 115,52.499995 C 106.60875,52.676699 98.41369,55.073827 91.24999,59.447082 76.732679,67.826951 67.70656,83.238963 67.499995,100 v 23.75001 57.89534 c 7.42246,4.41705 15.412974,7.80135 23.749995,10.05907 V 140.55293 123.75001 H 115 138.75 V 122.7657 100 H 115.36181 91.24999 C 91.24998,86.883493 101.88349,76.249987 115,76.249995 c 6.09516,0.01995 11.94967,2.382693 16.35126,6.599028 L 147.91509,65.832061 C 139.07998,57.299684 127.28252,52.521191 115,52.499995 Z"
       style="fill:#ffffff;fill-opacity:1;stroke-width:0.130536"
       id="path20" /></g></svg>
