<?xml version="1.0" encoding="UTF-8" standalone="no"?>
<!-- Created with Inkscape (http://www.inkscape.org/) -->

<svg
   width="18.719999cm"
   height="6cm"
   viewBox="0 0 187.19999 60"
   version="1.1"
   id="svg1"
   inkscape:export-filename="mbc-logo.svg"
   inkscape:export-xdpi="38.099998"
   inkscape:export-ydpi="38.099998"
   xml:space="preserve"
   xmlns:inkscape="http://www.inkscape.org/namespaces/inkscape"
   xmlns:sodipodi="http://sodipodi.sourceforge.net/DTD/sodipodi-0.dtd"
   xmlns="http://www.w3.org/2000/svg"
   xmlns:svg="http://www.w3.org/2000/svg"><sodipodi:namedview
     id="namedview1"
     pagecolor="#505050"
     bordercolor="#ffffff"
     borderopacity="1"
     inkscape:showpageshadow="0"
     inkscape:pageopacity="0"
     inkscape:pagecheckerboard="1"
     inkscape:deskcolor="#505050"
     inkscape:document-units="cm"
     inkscape:zoom="1.7791439"
     inkscape:cx="434.47862"
     inkscape:cy="612.37316"
     inkscape:window-width="1366"
     inkscape:window-height="705"
     inkscape:window-x="-8"
     inkscape:window-y="-8"
     inkscape:window-maximized="1"
     inkscape:current-layer="layer1" /><defs
     id="defs1"><rect
       x="97.650475"
       y="545.41364"
       width="614.48346"
       height="161.95688"
       id="rect57" /><rect
       x="97.650475"
       y="545.41364"
       width="614.48346"
       height="161.95688"
       id="rect65" /></defs><g
     inkscape:label="Layer 1"
     inkscape:groupmode="layer"
     id="layer1"><g
       id="g81"
       transform="translate(0,-24.576361)"><rect
         style="opacity:1;fill:#133060;fill-opacity:1;stroke:none;stroke-width:2.7728;stroke-dasharray:none;stroke-opacity:1"
         id="rect60"
         width="60"
         height="60"
         x="0"
         y="24.576361" /><rect
         style="opacity:1;fill:#133060;fill-opacity:1;stroke:none;stroke-width:2.7728;stroke-dasharray:none;stroke-opacity:1"
         id="rect61"
         width="60"
         height="60"
         x="63.600002"
         y="24.576361" /><rect
         style="opacity:1;fill:#133060;fill-opacity:1;stroke:none;stroke-width:2.7728;stroke-dasharray:none;stroke-opacity:1"
         id="rect62"
         width="60"
         height="60"
         x="127.2"
         y="24.576361" /><path
         d="m 158.65071,29.576361 c -4.26563,0 -8.17927,0.978225 -11.74129,2.935143 -3.54003,1.934923 -6.27746,4.782347 -8.21237,8.542249 -1.91294,3.73793 -2.86918,8.12456 -2.86918,13.159742 0,4.617438 0.84623,8.938059 2.53929,12.961824 1.71505,4.023765 4.1995,7.102179 7.45367,9.234995 3.27618,2.110822 7.51982,3.166046 12.73092,3.166046 5.0352,0 9.28983,-1.374218 12.7639,-4.12268 3.49605,-2.770456 5.91522,-6.783097 7.25648,-12.038175 l -6.39882,-1.616388 c -0.87951,4.06774 -2.5617,7.135155 -5.04632,9.202002 -2.48462,2.066855 -5.51903,3.100077 -9.10303,3.100077 -2.94636,0 -5.68379,-0.758234 -8.21239,-2.275398 -2.52859,-1.517141 -4.39705,-3.804327 -5.60637,-6.860619 -1.18735,-3.078295 -1.78132,-6.672947 -1.78132,-10.784661 0,-3.188232 0.50598,-6.277651 1.51741,-9.267972 1.01144,-3.012333 2.75891,-5.40876 5.24353,-7.189788 2.50659,-1.781004 5.61801,-2.67196 9.33395,-2.67196 3.23219,0 5.91463,0.802968 8.04743,2.408073 2.13282,1.605105 3.76002,4.166544 4.8814,7.684585 l 6.29984,-1.48444 c -1.29728,-4.463511 -3.59545,-7.926169 -6.89361,-10.388803 -3.29817,-2.462626 -7.36581,-3.693852 -12.20312,-3.693852 z"
         style="font-size:26.6667px;font-family:Arial;-inkscape-font-specification:Arial;white-space:pre;shape-inside:url(#rect57);fill:#4a82d4;fill-opacity:1;stroke-width:904.36"
         id="path78" /><path
         d="m 75.344815,30.401047 v 48.350627 h 18.43625 c 3.078292,0 5.673459,-0.26399 7.784275,-0.791686 2.13282,-0.549698 3.90228,-1.35193 5.30951,-2.407353 1.40721,-1.055407 2.58416,-2.550607 3.52964,-4.485546 0.96746,-1.956902 1.4507,-4.067352 1.4507,-6.3321 0,-2.814424 -0.79124,-5.255593 -2.37435,-7.322455 -1.56113,-2.066847 -3.80431,-3.529047 -6.72869,-4.386568 2.26475,-1.121392 3.95795,-2.594589 5.07932,-4.419584 1.12139,-1.824978 1.68236,-3.77044 1.68236,-5.837287 0,-2.220766 -0.63797,-4.342948 -1.91327,-6.365821 -1.2533,-2.044851 -3.0015,-3.551073 -5.24426,-4.518538 -2.22076,-0.989445 -5.177443,-1.483689 -8.871385,-1.483689 z m 6.398078,5.705347 h 9.663816 c 3.474066,0 5.925506,0.23099 7.354712,0.692731 1.429199,0.439762 2.529169,1.274979 3.298739,2.506308 0.76957,1.209318 1.15382,2.617266 1.15382,4.222371 0,1.693055 -0.41726,3.100266 -1.25279,4.221651 -0.81356,1.121376 -2.034489,1.923616 -3.661589,2.407337 -1.231321,0.3738 -3.264772,0.560791 -6.101189,0.560791 H 81.742893 Z m 0,20.316521 h 11.18123 c 3.078293,0 5.430735,0.275003 7.057828,0.824686 1.649079,0.527712 2.935299,1.462675 3.858789,2.803932 0.92349,1.319255 1.38546,2.880465 1.38546,4.683456 0,1.539151 -0.31899,2.902364 -0.95664,4.089703 -0.63763,1.165343 -1.45087,2.05558 -2.44031,2.671241 -0.98946,0.61566 -2.221408,1.055636 -3.694597,1.319499 -0.835534,0.153912 -2.286731,0.230911 -4.353588,0.230911 H 81.742893 Z"
         style="font-size:26.6667px;font-family:Arial;-inkscape-font-specification:Arial;white-space:pre;shape-inside:url(#rect57);fill:#4a82d4;fill-opacity:1;stroke-width:904.36"
         id="path77" /><g
         id="g78"
         transform="matrix(1.4173061,0,0,1.4655126,-88.56415,-175.53335)"
         style="fill:#aac8ee;fill-opacity:1"><path
           d="m 72.092757,140.52062 h -0.33538 v 10.35492 l 9.536368,22.51284 2.361096,-5.5733 z"
           style="font-size:26.6667px;font-family:Arial;-inkscape-font-specification:Arial;white-space:pre;shape-inside:url(#rect65);opacity:1;fill:#aac8ee;fill-opacity:1;stroke-width:920.933"
           id="path74" /><path
           d="m 99.899328,140.61105 -4.347538,10.26346 v 22.6379 h 4.347538 z"
           style="font-size:26.6667px;font-family:Arial;-inkscape-font-specification:Arial;white-space:pre;shape-inside:url(#rect65);opacity:1;fill:#aac8ee;fill-opacity:1;stroke-width:897.745"
           id="path75" /></g><g
         id="g80"
         style="fill:#4a82d4;fill-opacity:1"><path
           d="m 6.9762232,30.401406 v 0.134091 48.215839 H 13.138018 V 45.576717 30.401445 Z"
           style="font-size:26.6667px;font-family:Arial;-inkscape-font-specification:Arial;white-space:pre;shape-inside:url(#rect65);fill:#4a82d4;fill-opacity:1;stroke-width:1327.25"
           id="path72" /><path
           d="m 46.38665,30.401406 -16.386284,40.000378 -3.346396,8.167736 0.07471,0.181769 h 6.542649 l 0.0747,-0.181769 13.515955,-32.994354 6.161792,-15.041235 v -0.132486 h -6.161792 z"
           style="font-size:26.6667px;font-family:Arial;-inkscape-font-specification:Arial;white-space:pre;shape-inside:url(#rect65);fill:#4a82d4;fill-opacity:1;stroke-width:1327.25"
           id="path73" /></g></g></g></svg>
